<svg width="775" height="443" viewBox="0 0 775 443" fill="none" xmlns="http://www.w3.org/2000/svg">
<g filter="url(#filter0_f_67_386)">
<path d="M718 370.5C718 327.098 709.451 284.121 692.842 244.023C676.233 203.925 651.889 167.491 621.199 136.801C590.509 106.111 554.075 81.767 513.977 65.1578C473.879 48.5486 430.902 40 387.5 40C344.098 40 301.121 48.5486 261.023 65.1578C220.925 81.767 184.491 106.111 153.801 136.801C123.111 167.491 98.767 203.925 82.1578 244.023C65.5486 284.121 57 327.098 57 370.5L387.5 370.5H718Z" fill="#00FF8A"/>
</g>
<path d="M718 382.5C718 294.846 683.18 210.782 621.199 148.801C559.218 86.8204 475.154 52 387.5 52C299.846 52 215.782 86.8204 153.801 148.801C91.8205 210.782 57 294.846 57 382.5L387.5 382.5H718Z" fill="url(#paint0_linear_67_386)"/>
<g filter="url(#filter1_f_67_386)">
<path d="M718 372.5C718 329.098 709.451 286.121 692.842 246.023C676.233 205.925 651.889 169.491 621.199 138.801C590.509 108.111 554.075 83.767 513.977 67.1578C473.879 50.5486 430.902 42 387.5 42C344.098 42 301.121 50.5486 261.023 67.1578C220.925 83.767 184.491 108.111 153.801 138.801C123.111 169.491 98.767 205.925 82.1578 246.023C65.5486 286.121 57 329.098 57 372.5L387.5 372.5H718Z" fill="url(#paint1_linear_67_386)"/>
</g>
<path d="M775 426.5C775 323.729 734.174 225.166 661.504 152.496C588.834 79.8258 490.271 39 387.5 39C284.729 39 186.167 79.8258 113.496 152.496C40.8258 225.166 1.55181e-05 323.729 0 426.5L387.5 426.5H775Z" fill="#0D0F0E"/>
<defs>
<filter id="filter0_f_67_386" x="17" y="0" width="741" height="410.5" filterUnits="userSpaceOnUse" color-interpolation-filters="sRGB">
<feFlood flood-opacity="0" result="BackgroundImageFix"/>
<feBlend mode="normal" in="SourceGraphic" in2="BackgroundImageFix" result="shape"/>
<feGaussianBlur stdDeviation="20" result="effect1_foregroundBlur_67_386"/>
</filter>
<filter id="filter1_f_67_386" x="34" y="19" width="707" height="376.5" filterUnits="userSpaceOnUse" color-interpolation-filters="sRGB">
<feFlood flood-opacity="0" result="BackgroundImageFix"/>
<feBlend mode="normal" in="SourceGraphic" in2="BackgroundImageFix" result="shape"/>
<feGaussianBlur stdDeviation="11.5" result="effect1_foregroundBlur_67_386"/>
</filter>
<linearGradient id="paint0_linear_67_386" x1="388" y1="18" x2="381.5" y2="211" gradientUnits="userSpaceOnUse">
<stop stop-color="#91FFCC"/>
<stop offset="1" stop-color="#01160C"/>
</linearGradient>
<linearGradient id="paint1_linear_67_386" x1="388" y1="8" x2="383" y2="256" gradientUnits="userSpaceOnUse">
<stop offset="0.296739" stop-color="#F8FFFC"/>
<stop offset="1" stop-color="#01160C"/>
</linearGradient>
</defs>
</svg>
