<svg width="84" height="84" viewBox="0 0 84 84" fill="none" xmlns="http://www.w3.org/2000/svg">
<g filter="url(#filter0_d_89_140)">
<g clip-path="url(#clip0_89_140)">
<rect x="74" y="10" width="64" height="64" rx="16" transform="rotate(90 74 10)" fill="#0D0F0E"/>
<g opacity="0.6" filter="url(#filter1_f_89_140)">
<path d="M35.5109 45.5C16.3109 51.1 14.8442 63.5 16.5109 69H65.0107L68.5107 10H53.5107C55.5108 19.5 54.7109 39.9 35.5109 45.5Z" fill="#13F08A"/>
</g>
<g opacity="0.6" filter="url(#filter2_f_89_140)">
<path d="M15.5109 35.5C-3.68915 41.1 -5.15582 53.5 -3.48915 59H45.0107L48.5107 0H33.5107C35.5108 9.5 34.7109 29.9 15.5109 35.5Z" fill="#045B33"/>
</g>
<g opacity="0.6" filter="url(#filter3_f_89_140)">
<path d="M70.5109 55.5C51.3109 61.1 49.8442 73.5 51.5109 79H100.011L103.511 20H88.5107C90.5108 29.5 89.7109 49.9 70.5109 55.5Z" fill="#90FFCC"/>
</g>
<g filter="url(#filter4_f_89_140)">
<path d="M79.5109 60.5C60.3109 66.1 58.8442 78.5 60.5109 84H109.011L112.511 25H97.5107C99.5108 34.5 98.7109 54.9 79.5109 60.5Z" fill="#ABA5A5"/>
</g>
<path fill-rule="evenodd" clip-rule="evenodd" d="M55.4877 35.1582C55.6536 33.8933 55.717 32.7182 55.6224 31.7373C55.5324 30.8038 55.2809 29.8263 54.6097 29.2031C53.9584 28.5984 52.9785 28.4005 52.0463 28.3486C51.0633 28.294 49.8899 28.392 48.6263 28.5908C46.0924 28.9896 43.0435 29.818 40.1205 30.8115C37.1964 31.8054 34.3538 32.9796 32.2338 34.0888C31.1789 34.6408 30.2655 35.1955 29.6058 35.7236C29.2776 35.9863 28.9771 36.2699 28.7533 36.5713C28.541 36.8572 28.3123 37.2742 28.3344 37.7754C28.3699 38.5807 28.8111 39.1927 29.3949 39.6425C29.9544 40.0736 30.7136 40.4142 31.5902 40.7168C33.3479 41.3234 35.94 41.8933 39.2806 42.6279C39.9981 42.7857 40.2419 42.9189 40.3705 43.0381C40.3928 43.0588 40.4151 43.0837 40.4388 43.1133C40.4697 43.175 40.5067 43.2344 40.5512 43.29C40.6313 43.4437 40.7225 43.6759 40.8265 44.0468C40.9436 44.4639 41.0724 45.0958 41.2347 45.8925C41.2847 46.1376 41.337 46.3989 41.3939 46.6738C41.6291 47.8088 41.9199 49.1293 42.2943 50.3847C42.6647 51.6268 43.1375 52.8766 43.765 53.8359C44.3799 54.7758 45.2962 55.6586 46.5922 55.667C47.0858 55.6701 47.4957 55.4387 47.7836 55.2187C48.0854 54.9881 48.3689 54.6807 48.6322 54.3447C49.1608 53.6699 49.7114 52.7419 50.2553 51.6718C51.3483 49.5215 52.4887 46.6498 53.4369 43.7041C54.3845 40.7601 55.1549 37.6949 55.4877 35.1582ZM53.6312 31.9297C53.7054 32.6991 53.6615 33.7074 53.5053 34.8984C53.1937 37.2736 52.4599 40.2132 51.5336 43.0908C50.6078 45.9667 49.5044 48.7346 48.4721 50.7656C47.9535 51.7857 47.4713 52.5837 47.058 53.1113C46.8503 53.3764 46.6849 53.5401 46.5687 53.6289C46.551 53.6424 46.536 53.653 46.5238 53.6611C46.243 53.6261 45.8762 53.4097 45.4388 52.7412C44.9707 52.0254 44.5631 50.9953 44.2103 49.8125C43.8616 48.6431 43.5859 47.3921 43.3529 46.2675C43.303 46.0264 43.2546 45.7876 43.2074 45.5556C43.0409 44.7381 42.8899 44.0006 42.7513 43.5068C42.6899 43.288 42.623 43.0747 42.5463 42.8691L46.7064 38.707C47.097 38.3165 47.097 37.6835 46.7064 37.2929C46.3159 36.9025 45.6829 36.9024 45.2924 37.2929L41.3246 41.2627C40.8526 40.9659 40.3011 40.8047 39.7103 40.6748C36.3146 39.9281 33.863 39.3854 32.2426 38.8261C31.4301 38.5457 30.9159 38.2899 30.6156 38.0586C30.4483 37.9297 30.3808 37.8355 30.3529 37.7724C30.3549 37.7696 30.3575 37.7666 30.3597 37.7636C30.4417 37.6534 30.5974 37.492 30.8558 37.2851C31.3699 36.8736 32.1537 36.3882 33.1605 35.8613C35.1641 34.8129 37.906 33.6764 40.764 32.705C43.6232 31.7333 46.5545 30.9413 48.9369 30.5664C50.1314 30.3784 51.1506 30.301 51.9359 30.3447C52.7713 30.3912 53.1365 30.5652 53.2484 30.6689C53.3591 30.7717 53.5525 31.1128 53.6312 31.9297Z" fill="white"/>
</g>
<rect x="73.5" y="10.5" width="63" height="63" rx="15.5" transform="rotate(90 73.5 10.5)" stroke="#005F33"/>
</g>
<defs>
<filter id="filter0_d_89_140" x="0" y="0" width="84" height="84" filterUnits="userSpaceOnUse" color-interpolation-filters="sRGB">
<feFlood flood-opacity="0" result="BackgroundImageFix"/>
<feColorMatrix in="SourceAlpha" type="matrix" values="0 0 0 0 0 0 0 0 0 0 0 0 0 0 0 0 0 0 127 0" result="hardAlpha"/>
<feOffset/>
<feGaussianBlur stdDeviation="5"/>
<feComposite in2="hardAlpha" operator="out"/>
<feColorMatrix type="matrix" values="0 0 0 0 0 0 0 0 0 0.372549 0 0 0 0 0.2 0 0 0 0.25 0"/>
<feBlend mode="normal" in2="BackgroundImageFix" result="effect1_dropShadow_89_140"/>
<feBlend mode="normal" in="SourceGraphic" in2="effect1_dropShadow_89_140" result="shape"/>
</filter>
<filter id="filter1_f_89_140" x="-16" y="-22" width="116.511" height="123" filterUnits="userSpaceOnUse" color-interpolation-filters="sRGB">
<feFlood flood-opacity="0" result="BackgroundImageFix"/>
<feBlend mode="normal" in="SourceGraphic" in2="BackgroundImageFix" result="shape"/>
<feGaussianBlur stdDeviation="16" result="effect1_foregroundBlur_89_140"/>
</filter>
<filter id="filter2_f_89_140" x="-36" y="-32" width="116.511" height="123" filterUnits="userSpaceOnUse" color-interpolation-filters="sRGB">
<feFlood flood-opacity="0" result="BackgroundImageFix"/>
<feBlend mode="normal" in="SourceGraphic" in2="BackgroundImageFix" result="shape"/>
<feGaussianBlur stdDeviation="16" result="effect1_foregroundBlur_89_140"/>
</filter>
<filter id="filter3_f_89_140" x="19" y="-12" width="116.511" height="123" filterUnits="userSpaceOnUse" color-interpolation-filters="sRGB">
<feFlood flood-opacity="0" result="BackgroundImageFix"/>
<feBlend mode="normal" in="SourceGraphic" in2="BackgroundImageFix" result="shape"/>
<feGaussianBlur stdDeviation="16" result="effect1_foregroundBlur_89_140"/>
</filter>
<filter id="filter4_f_89_140" x="28" y="-7" width="116.511" height="123" filterUnits="userSpaceOnUse" color-interpolation-filters="sRGB">
<feFlood flood-opacity="0" result="BackgroundImageFix"/>
<feBlend mode="normal" in="SourceGraphic" in2="BackgroundImageFix" result="shape"/>
<feGaussianBlur stdDeviation="16" result="effect1_foregroundBlur_89_140"/>
</filter>
<clipPath id="clip0_89_140">
<rect x="74" y="10" width="64" height="64" rx="16" transform="rotate(90 74 10)" fill="white"/>
</clipPath>
</defs>
</svg>
